<?xml version="1.0" encoding="UTF-8"?>
<svg version="1.1" xmlns="http://www.w3.org/2000/svg" width="250" height="250">
<path d="M0 0 C2.90495267 0.03448959 5.80687225 0.02052574 8.71191406 0.0012207 C36.58306296 0.02337043 60.09468117 10.14648255 82.27441406 26.59692383 C83.69367188 27.6255957 83.69367188 27.6255957 85.14160156 28.67504883 C92.93561567 34.63647605 98.52631283 41.74859987 104.27441406 49.59692383 C104.9228125 50.45286133 105.57121094 51.30879883 106.23925781 52.19067383 C114.76594946 63.79161484 120.96647773 76.89140162 125.27441406 90.59692383 C125.54439209 91.38115723 125.81437012 92.16539063 126.0925293 92.97338867 C128.95881989 102.45622481 128.76303258 112.03494721 128.72045898 121.84936523 C128.7119705 124.8271251 128.74075328 127.80294712 128.77246094 130.78051758 C128.87215194 157.80423145 119.24848018 180.71890737 103.83691406 202.59692383 C103.4118457 203.20286377 102.98677734 203.80880371 102.54882812 204.43310547 C101.51144238 205.86192193 100.39933832 207.23595687 99.27441406 208.59692383 C98.61441406 208.59692383 97.95441406 208.59692383 97.27441406 208.59692383 C97.04753906 209.15379883 96.82066406 209.71067383 96.58691406 210.28442383 C94.91152655 213.23629707 92.73857867 215.31528993 90.27441406 217.59692383 C89.68015625 218.17313477 89.08589844 218.7493457 88.47363281 219.34301758 C78.82723481 228.37175544 67.83079737 235.10261081 56.02441406 240.90942383 C55.24098633 241.30564941 54.45755859 241.701875 53.65039062 242.11010742 C38.48040046 249.29668653 23.18067721 251.41165237 6.54882812 251.19384766 C3.64387545 251.15935807 0.74195588 251.17332191 -2.16308594 251.19262695 C-30.03423484 251.17047723 -53.54585305 241.0473651 -75.72558594 224.59692383 C-76.67175781 223.91114258 -77.61792969 223.22536133 -78.59277344 222.51879883 C-86.38678754 216.55737161 -91.97748471 209.44524779 -97.72558594 201.59692383 C-98.37398437 200.74098633 -99.02238281 199.88504883 -99.69042969 199.00317383 C-108.21712133 187.40223281 -114.4176496 174.30244604 -118.72558594 160.59692383 C-118.99556396 159.81269043 -119.26554199 159.02845703 -119.54370117 158.22045898 C-122.40999177 148.73762284 -122.21420445 139.15890044 -122.17163086 129.34448242 C-122.16314238 126.36672255 -122.19192515 123.39090054 -122.22363281 120.41333008 C-122.32332381 93.38961621 -112.69965206 70.47494028 -97.28808594 48.59692383 C-96.6504834 47.68801392 -96.6504834 47.68801392 -96 46.76074219 C-94.96261426 45.33192573 -93.85051019 43.95789079 -92.72558594 42.59692383 C-92.06558594 42.59692383 -91.40558594 42.59692383 -90.72558594 42.59692383 C-90.49871094 42.04004883 -90.27183594 41.48317383 -90.03808594 40.90942383 C-88.36269842 37.95755058 -86.18975055 35.87855773 -83.72558594 33.59692383 C-83.13132813 33.02071289 -82.53707031 32.44450195 -81.92480469 31.85083008 C-72.27840669 22.82209221 -61.28196925 16.09123684 -49.47558594 10.28442383 C-48.6921582 9.88819824 -47.90873047 9.49197266 -47.1015625 9.08374023 C-31.93157234 1.89716113 -16.63184908 -0.21780472 0 0 Z " fill="#814625" transform="translate(121.7255859375,-0.596923828125)"/>
<path d="M0 0 C3.57548545 2.38964605 7.05196574 5.10393149 9 9 C9.65209422 14.55883595 9.21431806 19.06073382 6.9375 24.1875 C5.00439609 28.658672 4.37740278 31.21760819 6 36 C7.69585351 38.65312363 9.48755759 41.17130957 11.40625 43.66796875 C14.75046939 48.56134859 14.60610261 54.2506838 14 60 C12.20338641 66.14744893 8.35441039 70.5816476 3 74 C-3.06692646 77.11504782 -8.04357624 77.43350449 -14.77148438 77.43945312 C-20.03172669 77.57675918 -22.65596548 78.83053276 -27 82 C-29.96310854 82.66959926 -31.88700444 82.35146724 -35 82 C-35.59425781 81.505 -36.18851563 81.01 -36.80078125 80.5 C-39.8935134 78.3905699 -42.34961352 78.62777308 -46.0625 78.5625 C-55.98025563 78.17250304 -64.50713787 75.89067388 -71.40234375 68.49609375 C-75.6641886 63.03007113 -75.7776154 57.39268672 -75.5625 50.63671875 C-74.73477545 45.28524961 -72.46251379 42.03374068 -69 38 C-66.55727839 34.84385109 -66.55727839 34.84385109 -66.3046875 31.16015625 C-67.07314238 28.77276554 -68.0443612 26.54172461 -69.0625 24.25 C-71.44770781 18.33050616 -72.05517112 13.98965152 -69.875 7.8125 C-67.63913396 4.45870094 -65.66653756 1.74420309 -62 0 C-54.64329544 -1.29361013 -49.27085101 0.16781327 -43 4 C-42.505 4.495 -42.505 4.495 -42 5 C-38.48900984 5.33755412 -34.96261156 5.325255 -31.4375 5.375 C-29.97086914 5.43107422 -29.97086914 5.43107422 -28.47460938 5.48828125 C-22.3880563 5.56166233 -18.56860226 4.83904958 -13.64086914 1.17822266 C-9.41676972 -1.8548831 -4.76783541 -1.4050143 0 0 Z " fill="#FDFDFC" transform="translate(116,85)"/>
<path d="M0 0 C2.97 0 5.94 0 9 0 C9 1.98 9 3.96 9 6 C10.1446875 6.37125 10.1446875 6.37125 11.3125 6.75 C14.28607889 8.13305995 15.32123929 9.23004483 17 12 C18.87235915 17.61707744 18.95422728 24.35932896 16.8125 29.9375 C14.88870234 33.18805467 13.16821176 34.96909503 10 37 C9.34 37 8.68 37 8 37 C8.01293031 40.74979021 8.16744498 44.33569735 9 48 C11.81177857 50.51428222 11.81177857 50.51428222 15 52 C18.21948082 57.15336691 18.57566377 63.41707943 17.25 69.25 C15.25 75.25 15.25 75.25 13 78 C10.3125 78.8125 10.3125 78.8125 8 79 C8 80.98 8 82.96 8 85 C5.36 85 2.72 85 0 85 C0 83.35 0 81.7 0 80 C-1.0828125 79.7215625 -1.0828125 79.7215625 -2.1875 79.4375 C-6.21643053 77.37826884 -8.42283154 75.18854576 -10 71 C-10.32701706 68.22599325 -10.52828599 65.65041543 -10.5625 62.875 C-10.57708252 62.18196777 -10.59166504 61.48893555 -10.60668945 60.77490234 C-10.51029294 55.91067607 -9.43533455 53.40416092 -6 50 C-3 48 -3 48 0 48 C0 44.37 0 40.74 0 37 C-1.65 36.34 -3.3 35.68 -5 35 C-10.02644545 29.43500683 -9.35795897 23.09493027 -9 16 C-8.4952208 12.33875338 -7.74682966 9.74682966 -5.0625 7.0625 C-3 6 -3 6 0 6 C0 4.02 0 2.04 0 0 Z " fill="#F5F1EF" transform="translate(191,84)"/>
<path d="M0 0 C2.31 0 4.62 0 7 0 C7.33 2.97 7.66 5.94 8 9 C8.66 9 9.32 9 10 9 C10.33 7.35 10.66 5.7 11 4 C12.65 4.33 14.3 4.66 16 5 C16.33 6.32 16.66 7.64 17 9 C17.66 9 18.32 9 19 9 C19.33 6.03 19.66 3.06 20 0 C22.31 0 24.62 0 27 0 C26.80349601 4.50976659 26.55572159 8.04733442 24.25 12 C22 14 22 14 17 15 C17 18.96 17 22.92 17 27 C18.65 27.33 20.3 27.66 22 28 C26.66012171 31.57275998 27.0543279 35.31857097 27.80859375 40.890625 C28.18300763 46.97294032 27.43497363 51.23387861 23.5625 56 C21 58 21 58 18 59 C17.67 62.63 17.34 66.26 17 70 C18.32 70.33 19.64 70.66 21 71 C25.57446809 75.14893617 25.57446809 75.14893617 27 78 C27.04022391 80.3329866 27.04320247 82.66706666 27 85 C24.69 85 22.38 85 20 85 C19.67 82.03 19.34 79.06 19 76 C18.34 76 17.68 76 17 76 C16.67 77.65 16.34 79.3 16 81 C14.35 81 12.7 81 11 81 C10.505 78.525 10.505 78.525 10 76 C9.01 76.495 9.01 76.495 8 77 C7.53476937 78.89533342 7.53476937 78.89533342 7.375 81.0625 C7.25125 82.361875 7.1275 83.66125 7 85 C4.69 85 2.38 85 0 85 C-0.66964286 77.23214286 -0.66964286 77.23214286 2.1875 73.5625 C5 71 5 71 10 70 C10 66.37 10 62.74 10 59 C8.35 58.34 6.7 57.68 5 57 C1.7200788 54.07952222 0.75087168 51.79834047 0.46875 47.53125 C0.4581857 45.85416759 0.46918531 44.17683257 0.5 42.5 C0.48453125 41.65824219 0.4690625 40.81648438 0.453125 39.94921875 C0.47851584 35.91842321 0.70022125 33.52870071 2.71875 29.96875 C5 28 5 28 10 27 C10 23.04 10 19.08 10 15 C8.35 14.67 6.7 14.34 5 14 C1.42784186 10.87766918 0.05931654 7.74738846 -0.3125 3.0625 C-0.209375 2.051875 -0.10625 1.04125 0 0 Z " fill="#F5F1EE" transform="translate(141,84)"/>
<path d="M0 0 C0.66 0 1.32 0 2 0 C3.92325647 3.2435873 4.27080868 5.68673517 4.25 9.4375 C4.25515625 10.36433594 4.2603125 11.29117188 4.265625 12.24609375 C3.98451512 15.16054176 3.21247903 17.34890497 2 20 C1.34 20 0.68 20 0 20 C-0.66 18.35 -1.32 16.7 -2 15 C-3.98491642 15.26676204 -3.98491642 15.26676204 -6 16 C-6.33 16.99 -6.66 17.98 -7 19 C-7.99 19 -8.98 19 -10 19 C-11.48619895 16.02760209 -11.13177009 13.30380422 -11.125 10 C-11.12757813 8.741875 -11.13015625 7.48375 -11.1328125 6.1875 C-11 3 -11 3 -10 1 C-9.01 1 -8.02 1 -7 1 C-6.67 1.99 -6.34 2.98 -6 4 C-4.35 4 -2.7 4 -1 4 C-0.67 2.68 -0.34 1.36 0 0 Z " fill="#8D583B" transform="translate(198,138)"/>
<path d="M0 0 C0.66 0 1.32 0 2 0 C2.33 1.32 2.66 2.64 3 4 C4.65 4 6.3 4 8 4 C8.33 2.68 8.66 1.36 9 0 C12 1 12 1 13 3 C13.1228777 4.93460941 13.17554888 6.87402904 13.1875 8.8125 C13.20167969 9.85019531 13.21585938 10.88789062 13.23046875 11.95703125 C12.99714427 15.03770533 12.30118886 17.21761592 11 20 C10.34 20 9.68 20 9 20 C8.67 18.68 8.34 17.36 8 16 C6.35 16 4.7 16 3 16 C2.34 17.32 1.68 18.64 1 20 C-1 18 -1 18 -1.23046875 14.375 C-1.22647678 12.9166018 -1.2117184 11.45820257 -1.1875 10 C-1.18685547 9.26265625 -1.18621094 8.5253125 -1.18554688 7.765625 C-1.14050904 2.28101809 -1.14050904 2.28101809 0 0 Z " fill="#895233" transform="translate(149,117)"/>
<path d="M0 0 C0.66 0 1.32 0 2 0 C2.66 1.32 3.32 2.64 4 4 C5.65 3.67 7.3 3.34 9 3 C9.33 2.01 9.66 1.02 10 0 C10.66 0 11.32 0 12 0 C13.47694068 2.95388136 13.20930797 5.65161882 13.25 8.9375 C13.27578125 10.18402344 13.3015625 11.43054688 13.328125 12.71484375 C13 16 13 16 11.484375 17.94140625 C10.99453125 18.29074219 10.5046875 18.64007813 10 19 C9.67 17.68 9.34 16.36 9 15 C7.35 15 5.7 15 4 15 C3.67 16.32 3.34 17.64 3 19 C2.01 18.67 1.02 18.34 0 18 C-1.52491129 14.95017742 -1.14361434 11.77877461 -1.125 8.4375 C-1.12886719 7.73947266 -1.13273438 7.04144531 -1.13671875 6.32226562 C-1.12663994 1.12663994 -1.12663994 1.12663994 0 0 Z " fill="#875031" transform="translate(189,96)"/>
</svg>
