<svg xmlns="http://www.w3.org/2000/svg" viewBox="0 0 199.43 108.11"><title>Bank of America logo</title><path d="M511.7,566.06c31.49-27,75.72-53.23,100-62.68-3.75-2.4-9.6-5.85-16.19-9.6-31.34,10.35-67.93,33.29-100.62,59.23,5.55,4.2,11.4,8.55,16.79,13Z" transform="translate(-412.28 -457.94)" style="fill:#e31837"/><path d="M497.31,492.73c-4.65-2.25-9.75-4.35-13.65-6.15-11.85,5.85-27.29,14.69-46.78,28.64,4.2,2.25,8.7,4.95,13.5,7.65C465.37,511.78,480.51,501.28,497.31,492.73Z" transform="translate(-412.28 -457.94)" style="fill:#012169"/><path d="M525.35,479.84c-5.7-3.15-25.49-10.5-39.14-13.65-4,1.5-9.75,3.75-13.65,5.4,4.95,1.35,23.39,6.3,39.14,14.25C515.75,483.88,521.45,481.49,525.35,479.84Z" transform="translate(-412.28 -457.94)" style="fill:#e31837"/><path d="M458.32,477.89c-17.54,8.1-36,19.19-46,25.64,3.6,1.65,7.2,3,12.15,5.4,22.19-15,39.59-24.14,46.48-27.14-4.95-1.8-9.6-3-12.6-3.9Z" transform="translate(-412.28 -457.94)" style="fill:#012169"/><path d="M538.54,475.19c4-1.35,8.7-2.55,12.75-3.75a285.42,285.42,0,0,0-39.59-13.5c-2.1.6-8.4,2.25-12.75,3.6A270.27,270.27,0,0,1,538.54,475.19Zm-73.92,56.38c4.8,2.85,9.9,6.75,14.84,10,32.84-25.49,65.23-45.13,100.77-56.23-4.95-2.55-9.3-4.8-14.84-7.5C544.09,483.28,507.65,497.83,464.62,531.57Z" transform="translate(-412.28 -457.94)" style="fill:#e31837"/></svg>